<svg width="13" height="13" viewBox="0 0 13 13" fill="none" xmlns="http://www.w3.org/2000/svg">
<path d="M6.4994 10.5089C8.71367 10.5089 10.5087 8.71388 10.5087 6.49961C10.5087 4.28535 8.71367 2.49033 6.4994 2.49033C4.28513 2.49033 2.49011 4.28535 2.49011 6.49961C2.49011 8.71388 4.28513 10.5089 6.4994 10.5089Z" fill="#1F2937"/>
<path d="M6.49931 0C6.38394 0 6.28955 0.0943926 6.28955 0.209761V1.38652C6.28955 1.50189 6.38394 1.59628 6.49931 1.59628C6.61468 1.59628 6.70907 1.50189 6.70907 1.38652V0.209761C6.70907 0.0943926 6.61468 0 6.49931 0Z" fill="#1F2937"/>
<path d="M6.49931 11.4038C6.38394 11.4038 6.28955 11.4982 6.28955 11.6135V12.7903C6.28955 12.9057 6.38394 13.0001 6.49931 13.0001C6.61468 13.0001 6.70907 12.9057 6.70907 12.7903V11.6135C6.70907 11.4971 6.61468 11.4038 6.49931 11.4038Z" fill="#1F2937"/>
<path d="M10.7985 1.90356L9.96675 2.73527C9.88494 2.81707 9.88494 2.95027 9.96675 3.03208C10.0077 3.07298 10.0611 3.09396 10.1146 3.09396C10.1681 3.09396 10.2216 3.07298 10.2625 3.03208L11.0942 2.20038C11.176 2.11857 11.176 1.98537 11.0942 1.90356C11.0124 1.82176 10.8803 1.82176 10.7985 1.90356Z" fill="#1F2937"/>
<path d="M2.73522 9.96681L1.90352 10.7985C1.82171 10.8803 1.82171 11.0135 1.90352 11.0953C1.94442 11.1362 1.99791 11.1572 2.0514 11.1572C2.10489 11.1572 2.15838 11.1362 2.19928 11.0953L3.03099 10.2636C3.11279 10.1818 3.11279 10.0486 3.03099 9.96681C2.94918 9.885 2.81703 9.885 2.73522 9.96681Z" fill="#1F2937"/>
<path d="M12.7891 6.28965H11.6123C11.497 6.28965 11.4026 6.38404 11.4026 6.49941C11.4026 6.61478 11.497 6.70917 11.6123 6.70917H12.7891C12.9045 6.70917 12.9989 6.61478 12.9989 6.49941C12.9989 6.38404 12.9055 6.28965 12.7891 6.28965Z" fill="#1F2937"/>
<path d="M1.38652 6.28965H0.209761C0.0943926 6.28965 0 6.38404 0 6.49941C0 6.61478 0.0943926 6.70917 0.209761 6.70917H1.38652C1.50189 6.70917 1.59628 6.61478 1.59628 6.49941C1.59628 6.38404 1.50189 6.28965 1.38652 6.28965Z" fill="#1F2937"/>
<path d="M10.2636 9.96681C10.1818 9.885 10.0486 9.885 9.96675 9.96681C9.88494 10.0486 9.88494 10.1818 9.96675 10.2636L10.7985 11.0953C10.8394 11.1362 10.8928 11.1572 10.9463 11.1572C10.9998 11.1572 11.0533 11.1362 11.0942 11.0953C11.176 11.0135 11.176 10.8803 11.0942 10.7985L10.2636 9.96681Z" fill="#1F2937"/>
<path d="M2.20033 1.90356C2.11852 1.82176 1.98533 1.82176 1.90352 1.90356C1.82171 1.98537 1.82171 2.11857 1.90352 2.20038L2.73522 3.03208C2.77613 3.07298 2.82961 3.09396 2.8831 3.09396C2.93659 3.09396 2.99008 3.07298 3.03099 3.03208C3.11279 2.95027 3.11279 2.81707 3.03099 2.73527L2.20033 1.90356Z" fill="#1F2937"/>
</svg>
